<svg xmlns="http://www.w3.org/2000/svg" width="17.28" height="17.062" viewBox="0 0 17.28 17.062">
  <defs>
    <style>
      .cls-1 {
        fill: #5b3f61;
        fill-rule: evenodd;
      }
    </style>
  </defs>
  <path id="bucket" class="cls-1" d="M1419.88,151.945h-5.86l-2.57,1.993h-2.54l4.15-4h7.9l4.07,4h-2.57Zm5.33,5.132c-0.64,3.823-1.73,9.923-1.73,9.923h-12.96s-1.07-6.07-1.71-9.894c-0.29-1.759-.44-3.043-0.44-3.043h17.28S1425.5,155.333,1425.21,157.077Zm-14.69-1.164,2.39,9.014h8.32l2.46-9.014h-13.17Zm7.95,7.089h-2.92l-0.54-1.533-1,0v-1.489l1,0.021,0.97,0,0.01,0.967,0.01,0.007V158h2v3.052l0.03-.037L1418,160l1,0,0.97-.018,0.02,1.492-1.01-.011Zm-1.67-1,0.19,0.251,0.21-.251h-0.4Z" transform="translate(-1408.38 -149.938)"/>
</svg>
