<svg xmlns="http://www.w3.org/2000/svg" width="8.68" height="16" viewBox="0 0 8.68 16">
  <defs>
    <style>
      .cls-1 {
        fill-rule: evenodd;
        opacity: 0.27;
      }
    </style>
  </defs>
  <path id="facebook" class="cls-1" d="M1395.01,3734h-2.08a3.647,3.647,0,0,0-3.85,3.94v1.81h-2.09a0.324,0.324,0,0,0-.32.33v2.63a0.324,0.324,0,0,0,.32.33h2.09v6.63a0.333,0.333,0,0,0,.33.33h2.73a0.324,0.324,0,0,0,.32-0.33v-6.63h2.45a0.324,0.324,0,0,0,.32-0.33l0.01-2.63a0.342,0.342,0,0,0-.33-0.33h-2.45v-1.54a0.929,0.929,0,0,1,1.15-1.11h1.4a0.324,0.324,0,0,0,.32-0.33v-2.44A0.324,0.324,0,0,0,1395.01,3734Z" transform="translate(-1386.66 -3734)"/>
</svg>
