<svg 
 xmlns="http://www.w3.org/2000/svg"
 xmlns:xlink="http://www.w3.org/1999/xlink"
 width="19px" height="16px">
<path fill-rule="evenodd"  fill="rgb(158, 140, 161)"
 d="M17.140,1.487 C16.182,0.527 14.910,-0.001 13.556,-0.001 C12.202,-0.001 10.929,0.527 9.972,1.487 L9.500,1.960 L9.028,1.487 C8.071,0.527 6.798,-0.001 5.444,-0.001 C4.091,-0.001 2.818,0.527 1.860,1.487 C-0.116,3.468 -0.116,6.692 1.860,8.672 L8.942,15.771 C9.058,15.888 9.202,15.959 9.352,15.987 C9.403,15.997 9.454,16.001 9.505,16.001 C9.705,16.001 9.906,15.925 10.058,15.771 L17.140,8.672 C19.116,6.692 19.116,3.468 17.140,1.487 ZM16.032,7.563 L9.500,14.111 L2.967,7.563 C1.602,6.194 1.602,3.966 2.967,2.596 C3.629,1.933 4.509,1.569 5.444,1.569 C6.380,1.569 7.259,1.933 7.921,2.596 L8.946,3.625 C9.240,3.919 9.760,3.919 10.054,3.625 L11.079,2.596 C11.740,1.933 12.620,1.569 13.556,1.569 C14.491,1.569 15.371,1.933 16.032,2.596 C17.398,3.966 17.398,6.194 16.032,7.563 Z"/>
</svg>
