<svg xmlns="http://www.w3.org/2000/svg" width="12.22" height="16" viewBox="0 0 12.22 16">
  <defs>
    <style>
      .cls-1 {
        fill-rule: evenodd;
        opacity: 0.27;
      }
    </style>
  </defs>
  <path id="pinterest" class="cls-1" d="M1361.01,3735.89c-2.1-2.28-5.65-2.13-8-.37-2.01,1.5-3.43,4.83-1.74,7.1a2.322,2.322,0,0,0,1.41.86,0.265,0.265,0,0,0,.32-0.18,3.712,3.712,0,0,0,.26-0.92,0.178,0.178,0,0,0-.19-0.19c-1.53-1.68-.49-3.77,1-5.06,1.32-1.15,3.74-2.22,5.29-.9,1.07,0.91,1.15,2.6,1.1,3.89-0.07,1.6-.63,3.3-2.3,3.81a1.382,1.382,0,0,1-1.55-.38,2.026,2.026,0,0,1-.13-1.81c0.24-.93.81-2.24,0.27-3.16-0.65-1.11-1.97-.1-2.35.65-0.23.45-.65,1.91-0.03,2.29a26.217,26.217,0,0,0-1.4,5.21,7.162,7.162,0,0,0-.11,2.44,3.834,3.834,0,0,0,.35.87c-0.03.15,0.19,0.2,0.28,0.08a9.343,9.343,0,0,0,1.56-2.54,12.293,12.293,0,0,0,.34-1.6,11.248,11.248,0,0,0,.27-1.18h0.01a4.679,4.679,0,0,0,1.84.85,4.088,4.088,0,0,0,2.91-.72,3.051,3.051,0,0,0,.36-0.29,4.086,4.086,0,0,0,.99-0.96C1363.41,3741.38,1362.85,3737.9,1361.01,3735.89Z" transform="translate(-1350.53 -3734.19)"/>
</svg>
