<svg xmlns="http://www.w3.org/2000/svg" width="17" height="14" viewBox="0 0 17 14">
  <defs>
    <style>
      .cls-1 {
        fill-rule: evenodd;
        opacity: 0.27;
      }
    </style>
  </defs>
  <path id="twitter" class="cls-1" d="M1431.76,3739.49c0.01,0.16.02,0.31,0.02,0.46a9.925,9.925,0,0,1-9.93,10.05,9.722,9.722,0,0,1-5.35-1.59,5.694,5.694,0,0,0,.83.05,6.9,6.9,0,0,0,4.33-1.51,3.515,3.515,0,0,1-3.26-2.45,3.6,3.6,0,0,0,.66.06,3.463,3.463,0,0,0,.92-0.12,3.534,3.534,0,0,1-2.8-3.47v-0.04a3.523,3.523,0,0,0,1.58.44,3.545,3.545,0,0,1-1.55-2.94,3.582,3.582,0,0,1,.47-1.78,9.869,9.869,0,0,0,7.19,3.7,3.591,3.591,0,0,1-.09-0.81,3.488,3.488,0,0,1,6.04-2.42,7.2,7.2,0,0,0,2.22-.85,3.606,3.606,0,0,1-1.54,1.95,6.39,6.39,0,0,0,2-.56A6.738,6.738,0,0,1,1431.76,3739.49Z" transform="translate(-1416.5 -3736)"/>
</svg>
